<svg xmlns="http://www.w3.org/2000/svg" width="315" height="80" viewBox="0 0 315 80">
    <g fill="none" fill-rule="evenodd">
        <path fill="#0A0B09" d="M84.143 48.479h4.673v-22.63h-4.673zM110.047 31.952c-2.479 0-3.941 1.049-5.149 2.765-.89-1.812-2.543-2.765-4.799-2.765-1.939 0-3.306.7-4.482 2.225h-.063v-1.845h-4.196V48.48h4.45v-8.295c0-3.02 1.017-4.736 2.956-4.736 1.653 0 2.542 1.208 2.542 3.273v9.758h4.45v-8.295c0-3.052 1.049-4.736 2.956-4.736 1.557 0 2.543 1.112 2.543 3.56v9.47h4.45v-9.916c0-4.385-2.194-6.61-5.658-6.61M127.146 31.92c-1.875 0-3.655.89-4.64 2.543h-.063v-2.13h-4.324v22.026h4.45v-7.818h.064c.985 1.525 2.734 2.351 4.577 2.351 4.036 0 6.642-3.337 6.642-8.486 0-5.149-2.637-8.486-6.706-8.486m-1.43 3.4c2.13 0 3.496 2.003 3.496 5.086 0 3.082-1.366 5.086-3.496 5.086-2.002 0-3.369-1.876-3.369-5.086 0-3.21 1.367-5.085 3.37-5.085M143.483 45.841c-1.908 0-3.528-1.176-3.655-4.513h11.6c0-1.78-.158-3.02-.509-4.133-1.016-3.273-3.75-5.37-7.468-5.37-5.054 0-8.01 3.686-8.01 8.454 0 5.149 2.956 8.708 8.042 8.708 4.29 0 7.087-2.446 7.723-5.403h-4.545c-.223 1.304-1.399 2.257-3.178 2.257m-.032-10.87c1.78 0 3.242 1.112 3.528 3.56h-7.057c.35-2.448 1.717-3.56 3.53-3.56M161.83 32.079c-1.908 0-3.338.794-4.418 2.543h-.064v-2.29h-4.1V48.48h4.45V40.85c0-3.178 1.461-4.895 4.195-4.895.445 0 .89.064 1.4.159v-3.846a5.773 5.773 0 0 0-1.463-.19M165.39 29.663h4.449V25.85h-4.45v3.814zm0 18.816h4.449V32.332h-4.45V48.48zM179.532 31.824c-4.608 0-6.833 2.48-6.992 5.562h4.322c.064-1.526 1.017-2.446 2.67-2.446 1.558 0 2.638.826 2.638 2.86v.572a52.01 52.01 0 0 0-4.036.445c-4.671.731-6.261 2.51-6.261 5.15 0 2.796 2.065 4.894 5.498 4.894 2.224 0 4.036-.827 5.244-2.543h.064c0 .794.064 1.494.222 2.16h4.005c-.286-1.08-.445-2.382-.445-4.417v-5.848c0-4.227-2.352-6.389-6.929-6.389m2.638 9.854c0 1.461-.159 2.32-.922 3.083-.635.635-1.62.921-2.542.921-1.558 0-2.384-.826-2.384-2.034 0-1.303.763-1.907 2.606-2.225.954-.159 2.289-.286 3.242-.35v.605M189.07 48.479h4.45v-22.63h-4.45zM213.691 25.34c-6.419 0-10.36 4.514-10.36 11.824 0 7.342 3.908 11.824 10.266 11.824 5.53 0 9.122-3.083 9.566-8.455h-4.8c-.348 2.765-2.097 4.323-4.766 4.323-3.37 0-5.436-2.892-5.436-7.692 0-4.767 2.098-7.691 5.53-7.691 2.64 0 4.387 1.588 4.673 4.227h4.704c-.223-4.927-3.782-8.36-9.377-8.36M233.493 31.824c-5.054 0-8.264 3.338-8.264 8.582 0 5.245 3.21 8.582 8.264 8.582 5.053 0 8.264-3.337 8.264-8.582 0-5.244-3.21-8.582-8.264-8.582m0 3.433c2.193 0 3.59 2.003 3.59 5.149 0 3.147-1.397 5.149-3.59 5.149-2.194 0-3.592-2.002-3.592-5.15 0-3.145 1.398-5.148 3.592-5.148M244.01 48.479h4.45v-22.63h-4.45zM251.454 48.479h4.45v-22.63h-4.45zM266.132 45.841c-1.907 0-3.528-1.176-3.655-4.513h11.6c0-1.78-.158-3.02-.507-4.133-1.018-3.273-3.751-5.37-7.47-5.37-5.053 0-8.01 3.686-8.01 8.454 0 5.149 2.957 8.708 8.042 8.708 4.29 0 7.087-2.446 7.724-5.403h-4.546c-.223 1.304-1.398 2.257-3.178 2.257m-.032-10.87c1.78 0 3.242 1.112 3.528 3.56h-7.056c.35-2.448 1.716-3.56 3.528-3.56M282.607 31.888c-4.068 0-6.675 3.178-6.675 8.2 0 5.022 2.575 8.2 6.611 8.2 1.94 0 3.306-.73 4.514-2.415h.063v1.43c0 3.147-1.24 4.164-3.242 4.164-1.684 0-2.702-.731-2.796-1.97h-4.451c.255 3.178 2.702 5.148 7.152 5.148 4.64 0 7.66-2.288 7.66-7.182v-15.13h-4.196v2.162h-.063c-1.24-1.845-2.607-2.607-4.577-2.607m1.208 3.655c2.097 0 3.432 1.811 3.432 4.545 0 2.733-1.335 4.545-3.432 4.545-1.97 0-3.243-1.747-3.243-4.545 0-2.797 1.273-4.545 3.243-4.545M301.337 45.841c-1.907 0-3.527-1.176-3.655-4.513h11.601c0-1.78-.158-3.02-.509-4.133-1.016-3.273-3.75-5.37-7.468-5.37-5.055 0-8.01 3.686-8.01 8.454 0 5.149 2.955 8.708 8.041 8.708 4.291 0 7.088-2.446 7.724-5.403h-4.545c-.223 1.304-1.4 2.257-3.179 2.257m-.031-10.87c1.78 0 3.242 1.112 3.528 3.56h-7.057c.35-2.448 1.717-3.56 3.529-3.56M309.096 79.458h4.449v-22.63h-4.449zM226.738 56.32c-4.959 0-8.36 2.734-8.36 6.706 0 4.958 3.879 5.976 8.138 7.056 3.21.826 4.672 1.208 4.672 3.21 0 1.78-1.526 2.893-3.91 2.893-2.893 0-4.386-1.431-4.386-4.165h-4.831c0 5.15 3.528 7.947 9.154 7.947 5.275 0 8.836-2.86 8.836-7.151 0-4.928-3.687-6.04-7.946-7.088-3.56-.89-4.926-1.462-4.926-3.21 0-1.462 1.398-2.48 3.463-2.48 2.575 0 3.942 1.367 3.942 3.719h4.735c0-4.862-2.924-7.437-8.581-7.437M245.927 62.803c-4.926 0-8.137 3.37-8.137 8.582 0 5.212 3.21 8.582 8.137 8.582 4.355 0 7.279-2.733 7.628-6.833h-4.673c-.126 2.096-1.27 3.4-2.987 3.4-2.16 0-3.465-1.97-3.465-5.15 0-3.178 1.304-5.147 3.465-5.147 1.716 0 2.861 1.175 3.02 3.082h4.64c-.35-3.782-3.273-6.516-7.628-6.516M259.982 65.092v-8.264h-4.45v22.63h4.45v-8.644c0-2.957 1.335-4.387 3.179-4.387 1.748 0 2.829 1.112 2.829 3.56v9.471h4.45v-9.917c0-4.386-2.32-6.61-5.944-6.61-1.716 0-3.306.698-4.45 2.16h-.064M280.665 62.803c-5.054 0-8.264 3.338-8.264 8.582 0 5.245 3.21 8.582 8.264 8.582 5.053 0 8.263-3.337 8.263-8.582 0-5.244-3.21-8.582-8.263-8.582m0 3.434c2.194 0 3.592 2.002 3.592 5.148 0 3.147-1.398 5.15-3.592 5.15-2.193 0-3.591-2.003-3.591-5.15 0-3.146 1.398-5.148 3.59-5.148M298.782 62.803c-5.054 0-8.264 3.338-8.264 8.582 0 5.245 3.21 8.582 8.264 8.582 5.053 0 8.264-3.337 8.264-8.582 0-5.244-3.21-8.582-8.264-8.582m0 3.434c2.193 0 3.591 2.002 3.591 5.148 0 3.147-1.398 5.15-3.591 5.15-2.194 0-3.592-2.003-3.592-5.15 0-3.146 1.398-5.148 3.592-5.148"/>
        <path fill="#EFAEB4" d="M65.26 21.739c0-6.812-3.351-13.4-9.157-17.197C50.743 1.082 44.154.188 37.79.188H14.852v79.28H40.69c7.593 0 14.962-.67 21.104-5.36 5.694-4.355 8.04-10.719 8.04-17.754 0-7.37-5.709-15.344-13.516-17.866 6.7-3.015 8.942-10.273 8.942-16.75m-14.629.894c0 7.48-5.472 9.827-11.947 9.827H23.952V12.583h14.396c6.477 0 12.283 2.456 12.283 10.05m4.575 33.386c0 8.04-7.259 10.496-13.959 10.496H23.952V44.517h17.356c7.593 0 13.898 3.015 13.898 11.502"/>
        <path fill="#D0242F" d="M.542 79.468h14.31V.188H.542z"/>
        <path fill="#0A0B09" d="M109.505 79.84c2.066 0 3.687-.986 4.736-2.416h.063v2.034h4.164V63.313h-4.45v8.644c0 2.924-1.335 4.387-3.177 4.387-1.75 0-2.83-1.112-2.83-3.56v-9.471h-4.45v9.916c0 4.386 2.32 6.611 5.944 6.611M127.512 62.803c-4.004 0-6.675 2.067-6.675 4.96 0 3.75 2.893 4.385 5.595 5.084 2.51.667 3.718.954 3.718 2.352 0 .954-.795 1.558-2.352 1.558-1.843 0-2.829-.922-2.829-2.543h-4.513c0 3.91 2.765 5.753 7.247 5.753 4.386 0 7.12-2.035 7.12-5.054 0-3.94-3.18-4.672-6.071-5.435-2.448-.635-3.464-.921-3.464-2.066 0-.922.762-1.493 2.193-1.493 1.588 0 2.543.698 2.543 2.351h4.258c0-3.59-2.542-5.467-6.77-5.467M137.206 60.642h4.45v-3.814h-4.45v3.814zm0 18.816h4.45V63.312h-4.45v16.146zM153.153 62.93c-2.067 0-3.687.987-4.736 2.416h-.064v-2.034h-4.164v16.146h4.45v-8.644c0-2.924 1.335-4.387 3.178-4.387 1.748 0 2.83 1.112 2.83 3.56v9.471h4.45v-9.917c0-4.385-2.322-6.61-5.944-6.61M168.98 76.82c-1.906 0-3.528-1.176-3.655-4.512h11.601c0-1.78-.159-3.02-.508-4.132-1.017-3.275-3.751-5.373-7.47-5.373-5.053 0-8.01 3.687-8.01 8.456 0 5.148 2.957 8.707 8.042 8.707 4.291 0 7.089-2.446 7.724-5.403h-4.545c-.223 1.304-1.398 2.257-3.179 2.257m-.031-10.87c1.78 0 3.241 1.113 3.528 3.56h-7.056c.35-2.447 1.716-3.56 3.528-3.56M185.38 62.803c-4.004 0-6.674 2.067-6.674 4.96 0 3.75 2.893 4.385 5.595 5.084 2.51.667 3.718.954 3.718 2.352 0 .954-.794 1.558-2.353 1.558-1.843 0-2.828-.922-2.828-2.543h-4.513c0 3.91 2.765 5.753 7.247 5.753 4.386 0 7.119-2.035 7.119-5.054 0-3.94-3.178-4.672-6.07-5.435-2.447-.635-3.465-.921-3.465-2.066 0-.922.763-1.493 2.193-1.493 1.59 0 2.543.698 2.543 2.351h4.259c0-3.59-2.543-5.467-6.77-5.467M201.082 62.803c-4.005 0-6.675 2.067-6.675 4.96 0 3.75 2.892 4.385 5.594 5.084 2.51.667 3.718.954 3.718 2.352 0 .954-.794 1.558-2.351 1.558-1.843 0-2.83-.922-2.83-2.543h-4.512c0 3.91 2.765 5.753 7.246 5.753 4.387 0 7.12-2.035 7.12-5.054 0-3.94-3.178-4.672-6.07-5.435-2.448-.635-3.466-.921-3.466-2.066 0-.922.764-1.493 2.194-1.493 1.589 0 2.543.698 2.543 2.351h4.258c0-3.59-2.542-5.467-6.77-5.467M100.64 62.983c0-1.945-.959-3.827-2.62-4.91-1.534-.99-3.42-1.245-5.241-1.245h-8.635v22.63h2.071v.01h7.394c2.172 0 4.282-.191 6.04-1.53 1.628-1.244 2.3-3.061 2.3-5.07 0-2.105-1.635-4.382-3.868-5.102 1.917-.861 2.559-2.933 2.559-4.783m-4.186.254c0 2.138-1.566 2.807-3.42 2.807H88.82v-5.676h4.12c1.853 0 3.515.701 3.515 2.87m1.045 9.534c0 2.296-2.077 2.997-3.995 2.997H88.82v-6.282h4.702c2.174 0 3.978.861 3.978 3.285"/>
    </g>
</svg>
